<svg xmlns="http://www.w3.org/2000/svg" viewBox="0 0 200 200">
  <!-- Circular background -->
  <circle cx="100" cy="100" r="95" fill="#89CFF0" stroke="#4A5568" stroke-width="3"/>
  
  <!-- Dashed anchor lines on left -->
  <line x1="55" y1="65" x2="75" y2="65" stroke="#5A4A3A" stroke-width="2" stroke-dasharray="4,4"/>
  <line x1="55" y1="85" x2="75" y2="85" stroke="#5A4A3A" stroke-width="2" stroke-dasharray="4,4"/>
  <line x1="55" y1="105" x2="75" y2="105" stroke="#5A4A3A" stroke-width="2" stroke-dasharray="4,4"/>
  <line x1="55" y1="125" x2="75" y2="125" stroke="#5A4A3A" stroke-width="2" stroke-dasharray="4,4"/>
  
  <!-- Brick wall structure -->
  <!-- Bottom row -->
  <rect x="80" y="115" width="35" height="20" fill="#C9945B" stroke="#5A4A3A" stroke-width="1.5"/>
  <rect x="117" y="115" width="35" height="20" fill="#D4A574" stroke="#5A4A3A" stroke-width="1.5"/>
  
  <!-- Second row -->
  <rect x="75" y="95" width="35" height="20" fill="#C9945B" stroke="#5A4A3A" stroke-width="1.5"/>
  <rect x="112" y="95" width="40" height="20" fill="#D4A574" stroke="#5A4A3A" stroke-width="1.5"/>
  
  <!-- Third row -->
  <rect x="80" y="75" width="35" height="20" fill="#C9945B" stroke="#5A4A3A" stroke-width="1.5"/>
  <rect x="117" y="75" width="35" height="20" fill="#D4A574" stroke="#5A4A3A" stroke-width="1.5"/>
  
  <!-- Top row -->
  <rect x="85" y="55" width="35" height="20" fill="#C9945B" stroke="#5A4A3A" stroke-width="1.5"/>
  
  <!-- Brick texture dots -->
  <circle cx="88" cy="62" r="1.5" fill="#8B6F47" opacity="0.4"/>
  <circle cx="95" cy="60" r="1.5" fill="#8B6F47" opacity="0.4"/>
  <circle cx="102" cy="63" r="1.5" fill="#8B6F47" opacity="0.4"/>
  <circle cx="83" cy="82" r="1.5" fill="#8B6F47" opacity="0.4"/>
  <circle cx="90" cy="80" r="1.5" fill="#8B6F47" opacity="0.4"/>
  <circle cx="113" cy="82" r="1.5" fill="#8B6F47" opacity="0.4"/>
  <circle cx="120" cy="80" r="1.5" fill="#8B6F47" opacity="0.4"/>
  <circle cx="83" cy="102" r="1.5" fill="#8B6F47" opacity="0.4"/>
  <circle cx="90" cy="100" r="1.5" fill="#8B6F47" opacity="0.4"/>
  <circle cx="120" cy="102" r="1.5" fill="#8B6F47" opacity="0.4"/>
  <circle cx="127" cy="100" r="1.5" fill="#8B6F47" opacity="0.4"/>
  <circle cx="88" cy="122" r="1.5" fill="#8B6F47" opacity="0.4"/>
  <circle cx="95" cy="120" r="1.5" fill="#8B6F47" opacity="0.4"/>
  <circle cx="125" cy="122" r="1.5" fill="#8B6F47" opacity="0.4"/>
  
  <!-- Concrete/backing on right -->
  <rect x="152" y="75" width="25" height="60" fill="#D4A574" stroke="#5A4A3A" stroke-width="1.5"/>
  
  <!-- Ground/landscaping base -->
  <path d="M 50 135 Q 75 130 100 132 Q 125 130 150 135 L 150 145 Q 125 140 100 142 Q 75 140 50 145 Z" fill="#7FBA3D" stroke="#5A4A3A" stroke-width="1.5"/>
  
  <!-- Ground details (pebbles/stones) -->
  <circle cx="75" cy="140" r="3.5" fill="#6BA82E" stroke="#5A4A3A" stroke-width="0.5"/>
  <circle cx="95" cy="142" r="3" fill="#6BA82E" stroke="#5A4A3A" stroke-width="0.5"/>
  <circle cx="120" cy="141" r="3.5" fill="#6BA82E" stroke="#5A4A3A" stroke-width="0.5"/>
  <circle cx="135" cy="140" r="2.5" fill="#6BA82E" stroke="#5A4A3A" stroke-width="0.5"/>
</svg>
